<svg width="21" height="21" viewBox="0 0 21 21" fill="none" xmlns="http://www.w3.org/2000/svg">
<g clip-path="url(#clip0_12949_53996)">
<path d="M10.5001 0.75C15.8842 0.75 20.2501 5.11585 20.2501 10.5C20.2501 15.8842 15.8842 20.25 10.5001 20.25C5.11592 20.25 0.750122 15.8869 0.750122 10.5C0.750122 5.11312 5.11592 0.75 10.5001 0.75Z" fill="#F9D9E9"/>
<path d="M10.1731 10.1303C10.4658 10.648 9.8111 10.8085 9.50387 10.838C9.03828 10.8835 8.94189 10.6139 9.03285 10.2753C9.06267 10.154 9.12892 10.045 9.22255 9.96284C9.31621 9.88071 9.43275 9.82953 9.55636 9.81621C9.67816 9.80499 9.80063 9.82849 9.90971 9.88407C10.0188 9.93962 10.1101 10.025 10.1731 10.1303Z" fill="#EA337B"/>
<path d="M12.0007 9.1709C11.6604 11.7854 16.2477 11.2413 16.1603 13.3222C16.6128 12.7313 16.8074 11.1259 15.4753 10.2995C14.2884 9.56272 12.7419 9.96588 12.0007 9.1709Z" fill="#EA337B"/>
<path d="M14.6427 8.18596C14.6129 8.15834 14.5823 8.13117 14.5526 8.104C14.5827 8.13163 14.6129 8.16062 14.6427 8.18596Z" fill="#EA337B"/>
<path d="M15.7093 10.0917L15.7066 10.0876C15.6652 10.0104 15.618 9.93636 15.5654 9.86628C15.4108 9.65582 15.1889 9.50499 14.9369 9.43901C14.7692 9.39552 14.5977 9.36842 14.4247 9.35812C14.2496 9.34537 14.0709 9.33811 13.8904 9.32855C13.5284 9.30855 13.1578 9.27129 12.7958 9.16766C12.7053 9.14174 12.6148 9.11356 12.5275 9.07948C12.4823 9.06312 12.4402 9.04538 12.3954 9.02629C12.3506 9.0072 12.3049 8.98539 12.2596 8.96219C12.0894 8.86854 11.9318 8.75354 11.7904 8.61994C11.5117 8.35948 11.2927 8.06402 11.0732 7.77766C10.8663 7.49022 10.6443 7.21407 10.4081 6.95042C10.175 6.69212 9.89954 6.47597 9.59364 6.31133C9.27689 6.15107 8.93286 6.05236 8.57965 6.02044C8.94608 5.98045 9.31674 6.02587 9.66287 6.15314C10.0121 6.28935 10.3314 6.49305 10.6027 6.7527C10.7798 6.91953 10.946 7.09763 11.1004 7.28586C12.2497 7.05858 13.1818 7.2604 13.8981 7.65222L13.9143 7.6604C14.1423 7.78461 14.356 7.9337 14.5514 8.10495C14.5826 8.13222 14.6134 8.15949 14.6419 8.18722C14.7945 8.32803 14.9365 8.47995 15.0668 8.64176L15.0767 8.65494C15.4998 9.1931 15.7089 9.75264 15.7093 10.0917Z" fill="#EA337B"/>
<path d="M15.7097 10.0937L15.707 10.0881L15.7097 10.0937Z" fill="#EA337B"/>
<path d="M8.63849 6.35596C8.93171 6.3987 9.23078 6.51596 9.42353 6.7396C9.61631 6.96323 9.68733 7.25413 9.74298 7.53096C9.78823 7.7455 9.82399 7.96414 9.90814 8.16731C9.94885 8.2664 10.0086 8.35321 10.0584 8.44684C10.0995 8.52457 10.1746 8.59458 10.2036 8.67775C10.2088 8.68969 10.2107 8.7028 10.2092 8.71573C10.2077 8.72869 10.2028 8.74097 10.195 8.7514C10.0928 8.86504 9.81675 8.73866 9.71267 8.68776C9.53276 8.59818 9.37162 8.47474 9.23802 8.32413C8.82038 7.85822 8.60456 7.18776 8.61769 6.57733C8.62059 6.50322 8.62754 6.42932 8.63849 6.35596Z" fill="#EA337B"/>
<path d="M13.5427 11.6113C12.9092 13.3872 15.7825 14.5785 14.706 16.384C15.8105 15.9258 16.3349 14.5417 15.8766 13.4436C15.4757 12.4795 14.2902 12.1281 13.5427 11.6113Z" fill="#EA337B"/>
<path d="M9.742 13.9327C9.91463 13.802 10.1034 13.6943 10.3035 13.6122C10.506 13.5308 10.7161 13.4699 10.9307 13.4304C11.3564 13.3491 11.7777 13.3291 12.1315 13.1859C12.3064 13.1173 12.4672 13.0172 12.6062 12.8904C12.7407 12.7649 12.8436 12.6091 12.9066 12.4359C12.9711 12.2531 12.9973 12.0589 12.9835 11.8654C12.9676 11.6576 12.9207 11.4534 12.8446 11.2595C13.0023 11.4243 13.1172 11.6256 13.179 11.8456C13.2408 12.0657 13.2476 12.2976 13.1989 12.5209C13.1436 12.7573 13.0241 12.9736 12.8537 13.1459C12.685 13.3128 12.4817 13.4401 12.2582 13.5186C12.045 13.5937 11.8226 13.6396 11.5972 13.655C11.38 13.6731 11.17 13.6781 10.9637 13.6904C10.5465 13.708 10.1345 13.7897 9.742 13.9327Z" fill="#EA337B"/>
<path d="M13.7954 17.0553C13.7316 17.1062 13.6678 17.1603 13.5976 17.2076C13.5271 17.2543 13.4531 17.2956 13.3764 17.3312C13.2166 17.4095 13.041 17.4495 12.8633 17.448C12.3818 17.4389 12.0416 17.079 11.8425 16.6721C11.7067 16.3949 11.6131 16.0953 11.452 15.8312C11.2217 15.4535 10.8276 15.1494 10.366 15.2058C10.1778 15.2294 10.0014 15.3144 9.89684 15.4785C9.62172 15.9071 10.0168 16.5076 10.5204 16.4226C10.5632 16.4161 10.6051 16.4044 10.6452 16.3881C10.6852 16.3709 10.7226 16.3481 10.7561 16.3203C10.8264 16.2615 10.8795 16.1845 10.9095 16.0976C10.9426 16.007 10.9499 15.909 10.9308 15.8144C10.9101 15.7156 10.852 15.6287 10.7688 15.5722C10.8655 15.6177 10.941 15.6991 10.9792 15.7994C11.0188 15.9026 11.029 16.0148 11.0086 16.1235C10.9888 16.2367 10.9391 16.3425 10.8647 16.4299C10.8252 16.4748 10.7794 16.5138 10.7289 16.5458C10.6789 16.5774 10.6253 16.6028 10.5692 16.6217C10.4556 16.6607 10.3346 16.6733 10.2154 16.6585C10.048 16.6346 9.89015 16.5658 9.75839 16.4594C9.60273 16.3358 9.48689 16.174 9.34617 16.0349C9.18485 15.8648 8.99454 15.7252 8.7842 15.6226C8.63916 15.5586 8.48736 15.5113 8.33173 15.4817C8.25344 15.4653 8.17426 15.4535 8.09508 15.4435C8.05889 15.4399 7.88151 15.4003 7.85663 15.4235C8.10136 15.1972 8.36817 14.9962 8.65299 14.8235C8.94543 14.6492 9.25942 14.5142 9.5869 14.4222C9.92642 14.3262 10.2815 14.2988 10.6317 14.3417C10.8119 14.3635 10.9884 14.4093 11.1565 14.4781C11.3327 14.5488 11.4953 14.6497 11.637 14.7763C11.7774 14.909 11.8908 15.0679 11.971 15.244C12.0434 15.4088 12.0974 15.5813 12.1321 15.7581C12.2352 16.2867 12.1972 17.1062 12.8864 17.2271C12.9223 17.2341 12.9585 17.2393 12.9949 17.2426L13.1076 17.2453C13.1851 17.2398 13.262 17.2287 13.3379 17.2121C13.4951 17.175 13.6483 17.1225 13.7954 17.0553Z" fill="#EA337B"/>
<path d="M9.79065 16.4792L9.77264 16.4651L9.79065 16.4792Z" fill="#EA337B"/>
<path d="M9.17236 9.01849C9.14726 9.11536 9.10344 9.20634 9.0434 9.28622C8.93164 9.43193 8.7837 9.54557 8.61446 9.61575C8.46221 9.68165 8.301 9.72425 8.1362 9.74211C8.10043 9.74667 8.06334 9.7494 8.0276 9.75212C7.9232 9.7561 7.82283 9.79356 7.74117 9.85898C7.6595 9.92441 7.60084 10.0144 7.57376 10.1158C7.56136 10.1662 7.55214 10.2173 7.54615 10.2689C7.52986 10.4026 7.52716 10.5416 7.51268 10.7098C7.47723 10.996 7.39482 11.2743 7.26879 11.5335C7.10501 11.8798 6.92128 12.1589 6.96383 12.558C6.99187 12.8171 7.124 12.9907 7.29956 13.1698C7.61628 13.4952 8.32533 13.6407 8.16694 14.4425C8.07147 14.9211 7.28146 15.4234 6.17109 15.5989C6.2815 15.582 6.02946 15.1552 6.01362 15.128C5.89463 14.9407 5.76431 14.7643 5.66974 14.5611C5.48422 14.167 5.39825 13.7112 5.47427 13.2793C5.55436 12.8248 5.8892 12.4766 6.16747 12.1293C6.49867 11.7162 6.84618 11.1748 6.92309 10.6385C6.94119 10.5085 6.95386 10.3457 6.98282 10.1839C7.01043 10.0046 7.06634 9.83096 7.14842 9.66939C7.20446 9.56343 7.27823 9.46793 7.36653 9.38711C7.41255 9.34421 7.44291 9.28704 7.45276 9.22472C7.4626 9.16241 7.45136 9.09861 7.42083 9.04349L5.65074 5.84535L8.1932 8.99713C8.22216 9.03364 8.25874 9.06332 8.3004 9.08403C8.34205 9.10476 8.38773 9.11601 8.43419 9.11702C8.48064 9.11801 8.52676 9.10872 8.56926 9.08982C8.61176 9.0709 8.64957 9.04284 8.68005 9.00758C8.71227 8.96986 8.73054 8.92212 8.73177 8.87243C8.733 8.82275 8.71714 8.77417 8.68686 8.73485C8.5208 8.52169 8.34524 8.3044 8.1751 8.09078L7.53529 7.29534L6.25116 5.70717L4.50012 3.5L6.41587 5.5649L7.7828 7.08306L8.46469 7.84397C8.69091 8.09987 8.91716 8.3476 9.1434 8.61668L9.18049 8.66214L9.18865 8.73259C9.19968 8.82813 9.19415 8.92485 9.17236 9.01849Z" fill="#EA337B"/>
<path d="M9.75816 16.4592C9.6353 16.3639 9.52601 16.2521 9.43329 16.127C9.53276 16.2461 9.64139 16.3572 9.75816 16.4592Z" fill="#EA337B"/>
</g>
<defs>
<clipPath id="clip0_12949_53996">
<rect width="20" height="20" fill="white" transform="translate(0.500122 0.5)"/>
</clipPath>
</defs>
</svg>
