<svg width="25" height="24" viewBox="0 0 25 24" fill="none" xmlns="http://www.w3.org/2000/svg">
<g clip-path="url(#clip0_2016_2105)">
<path d="M12.6 24C19.2274 24 24.6 18.6274 24.6 12C24.6 5.37258 19.2274 0 12.6 0C5.97256 0 0.599976 5.37258 0.599976 12C0.599976 18.6274 5.97256 24 12.6 24Z" fill="#F5F0FD"/>
<path d="M16.0691 14.5925L19.4648 12.6325C19.6461 12.5296 19.7539 12.3336 19.7539 12.1278V8.20787C19.7539 8.00207 19.6412 7.80607 19.4648 7.70317L16.0691 5.74319C15.8878 5.64029 15.6673 5.64029 15.486 5.74319L12.0904 7.70317C11.9091 7.80607 11.8013 8.00207 11.8013 8.20787V15.2148L9.41989 16.5868L7.03851 15.2148V12.4659L9.41989 11.089L10.9928 11.9955V10.1532L9.71389 9.41326C9.62569 9.36426 9.52279 9.33486 9.42479 9.33486C9.3268 9.33486 9.2239 9.36426 9.1357 9.41326L5.74003 11.3732C5.55873 11.4761 5.45093 11.6721 5.45093 11.8779V15.7979C5.45093 16.0037 5.56363 16.1997 5.74003 16.3026L9.1357 18.2626C9.317 18.3655 9.53749 18.3655 9.71879 18.2626L13.1145 16.3026C13.2958 16.1997 13.4036 16.0037 13.4036 15.7979V8.79096L13.4477 8.76646L15.7849 7.41408L18.1663 8.79096V11.5398L15.7849 12.9118L14.217 12.0053V13.8477L15.4958 14.5827C15.6673 14.6954 15.8927 14.6954 16.0691 14.5925Z" fill="url(#paint0_linear_2016_2105)"/>
</g>
<defs>
<linearGradient id="paint0_linear_2016_2105" x1="6.66122" y1="16.3349" x2="18.964" y2="7.3641" gradientUnits="userSpaceOnUse">
<stop stop-color="#A726C1"/>
<stop offset="0.88" stop-color="#803BDF"/>
<stop offset="1" stop-color="#7B3FE4"/>
</linearGradient>
<clipPath id="clip0_2016_2105">
<rect width="24" height="24" fill="white" transform="translate(0.599976)"/>
</clipPath>
</defs>
</svg>
